<svg xmlns="http://www.w3.org/2000/svg" width="26" height="37" viewBox="0 0 26 37"><g><g><g><path fill="#00b8f0" d="M25 31.091V8.146c0-.874-.557-1.588-1.352-1.827L6 1v25.645l17.807 5.32c.557.159 1.193-.238 1.193-.874z"/></g><g><path fill="none" stroke="#45413c" stroke-linecap="round" stroke-linejoin="round" stroke-miterlimit="20" d="M25 31.091V8.146c0-.874-.557-1.588-1.352-1.827L6 1v25.645l17.807 5.32c.557.159 1.193-.238 1.193-.874z"/></g><g><path fill="#656769" d="M9 2.198L5 1v25.802L9 28z"/><path fill="none" stroke="#45413c" stroke-linecap="round" stroke-linejoin="round" stroke-miterlimit="20" d="M9 2.198v0L5 1v25.802L9 28v0z"/></g><g><path fill="#656769" d="M6 1L1 4.419V15l5-4.314z"/><path fill="none" stroke="#45413c" stroke-linecap="round" stroke-linejoin="round" stroke-miterlimit="20" d="M6 1v0L1 4.419V15l5-4.314v0z"/></g><g opacity=".15"><path fill="#45413c" d="M1 35.5C1 34.67 5.925 34 12 34s11 .671 11 1.5c0 .828-4.925 1.5-11 1.5s-11-.672-11-1.5z"/></g><g><path fill="#fffce5" d="M19 34l4-2.703V8l-4 2.465z"/></g><g><path fill="#fffef2" d="M19 10.354V14l4-2.355V8z"/></g><g><path fill="none" stroke="#45413c" stroke-linecap="round" stroke-linejoin="round" stroke-miterlimit="20" d="M19 34v0l4-2.703v0V8v0l-4 2.465v0z"/></g><g><path fill="#fffef2" d="M5.543 3L2 5.638 18.457 11 22 8.362z"/><path fill="none" stroke="#45413c" stroke-linecap="round" stroke-linejoin="round" stroke-miterlimit="20" d="M5.543 3v0L2 5.638v0L18.457 11v0L22 8.362v0z"/></g><g><path fill="#00b8f0" d="M20 34.091V11.146c0-.874-.557-1.588-1.352-1.827L1 4v24.932c0 .397.318.714.715.873l17.093 5.16c.556.16 1.192-.237 1.192-.873z"/></g><g><path fill="#3ccffc" d="M20 11.2V14c0-.88-.557-1.6-1.352-1.84L1 6.8V4l17.648 5.36c.795.24 1.352.96 1.352 1.84z"/></g><g><path fill="none" stroke="#45413c" stroke-linecap="round" stroke-linejoin="round" stroke-miterlimit="20" d="M20 34.091V11.146c0-.874-.557-1.588-1.352-1.827L1 4v24.932c0 .397.318.714.715.873l17.093 5.16c.556.16 1.192-.237 1.192-.873z"/></g><g><path fill="#656769" d="M5 5.201V31l-3.265-.961c-.49-.08-.735-.481-.735-.882V4L5 5.2z"/></g><g><path fill="#87898c" d="M1 4v2.8L5 8V5.2z"/></g><g><path fill="none" stroke="#45413c" stroke-linecap="round" stroke-linejoin="round" stroke-miterlimit="20" d="M5 5.201V31l-3.265-.961c-.49-.08-.735-.481-.735-.882V4v0L5 5.2v0z"/></g><g><path fill="#f8e587" d="M15 18l-6-1.972V12l6 1.885z"/><path fill="none" stroke="#45413c" stroke-linecap="round" stroke-linejoin="round" stroke-miterlimit="20" d="M15 18v0l-6-1.972v0V12v0l6 1.885v0z"/></g></g></g></svg>