<svg xmlns="http://www.w3.org/2000/svg" width="1613" height="703" viewBox="0 0 1613 703"><defs><mask id="2ffyb" width="2" height="2" x="-1" y="-1"><path fill="#fff" d="M207 170h113v113H207z"/><path d="M207 226.5c0-31.205 25.296-56.5 56.5-56.5s56.5 25.295 56.5 56.5c0 31.204-25.296 56.5-56.5 56.5S207 257.704 207 226.5z"/></mask><filter id="2ffya" width="201" height="213" x="163" y="126" filterUnits="userSpaceOnUse"><feOffset dy="12" in="SourceGraphic" result="FeOffset1023Out"/><feGaussianBlur in="FeOffset1023Out" result="FeGaussianBlur1024Out" stdDeviation="13.6 13.6"/></filter><mask id="2ffyd" width="2" height="2" x="-1" y="-1"><path fill="#fff" d="M314 477h149v149H314z"/><path d="M314 551.5c0-41.146 33.355-74.5 74.5-74.5s74.5 33.354 74.5 74.5c0 41.145-33.355 74.5-74.5 74.5S314 592.644 314 551.5z"/></mask><filter id="2ffyc" width="237" height="249" x="270" y="433" filterUnits="userSpaceOnUse"><feOffset dy="12" in="SourceGraphic" result="FeOffset1039Out"/><feGaussianBlur in="FeOffset1039Out" result="FeGaussianBlur1040Out" stdDeviation="13.6 13.6"/></filter><mask id="2ffyf" width="2" height="2" x="-1" y="-1"><path fill="#fff" d="M383 300h85v85h-85z"/><path d="M383 342.5c0-23.473 19.028-42.5 42.5-42.5s42.5 19.027 42.5 42.5c0 23.472-19.028 42.5-42.5 42.5S383 365.972 383 342.5z"/></mask><filter id="2ffye" width="173" height="185" x="339" y="256" filterUnits="userSpaceOnUse"><feOffset dy="12" in="SourceGraphic" result="FeOffset1055Out"/><feGaussianBlur in="FeOffset1055Out" result="FeGaussianBlur1056Out" stdDeviation="13.6 13.6"/></filter><mask id="2ffyh" width="2" height="2" x="-1" y="-1"><path fill="#fff" d="M29 572h85v85H29z"/><path d="M29 614.5c0-23.473 19.028-42.5 42.5-42.5s42.5 19.027 42.5 42.5c0 23.472-19.028 42.5-42.5 42.5S29 637.972 29 614.5z"/></mask><filter id="2ffyg" width="173" height="185" x="-15" y="528" filterUnits="userSpaceOnUse"><feOffset dy="12" in="SourceGraphic" result="FeOffset1071Out"/><feGaussianBlur in="FeOffset1071Out" result="FeGaussianBlur1072Out" stdDeviation="13.6 13.6"/></filter><mask id="2ffyj" width="2" height="2" x="-1" y="-1"><path fill="#fff" d="M162 387h92v92h-92z"/><path d="M162 433c0-25.406 20.595-46 46-46s46 20.594 46 46c0 25.405-20.595 46-46 46s-46-20.595-46-46z"/></mask><filter id="2ffyi" width="180" height="192" x="118" y="343" filterUnits="userSpaceOnUse"><feOffset dy="12" in="SourceGraphic" result="FeOffset1087Out"/><feGaussianBlur in="FeOffset1087Out" result="FeGaussianBlur1088Out" stdDeviation="13.6 13.6"/></filter><mask id="2ffyl" width="2" height="2" x="-1" y="-1"><path fill="#fff" d="M62 141h54v54H62z"/><path d="M62 168c0-14.912 12.088-27 27-27s27 12.088 27 27c0 14.911-12.088 27-27 27s-27-12.089-27-27z"/></mask><filter id="2ffyk" width="142" height="154" x="18" y="97" filterUnits="userSpaceOnUse"><feOffset dy="12" in="SourceGraphic" result="FeOffset1103Out"/><feGaussianBlur in="FeOffset1103Out" result="FeGaussianBlur1104Out" stdDeviation="13.6 13.6"/></filter><mask id="2ffyn" width="2" height="2" x="-1" y="-1"><path fill="#fff" d="M1232 154h113v113h-113z"/><path d="M1345 210.5c0-31.205-25.296-56.5-56.5-56.5s-56.5 25.295-56.5 56.5c0 31.204 25.296 56.5 56.5 56.5s56.5-25.296 56.5-56.5z"/></mask><filter id="2ffym" width="201" height="213" x="1188" y="110" filterUnits="userSpaceOnUse"><feOffset dy="12" in="SourceGraphic" result="FeOffset1119Out"/><feGaussianBlur in="FeOffset1119Out" result="FeGaussianBlur1120Out" stdDeviation="13.6 13.6"/></filter><mask id="2ffyp" width="2" height="2" x="-1" y="-1"><path fill="#fff" d="M1227 538h124v124h-124z"/><path d="M1351 600c0-34.242-27.759-62-62-62-34.242 0-62 27.758-62 62 0 34.241 27.758 62 62 62 34.241 0 62-27.759 62-62z"/></mask><filter id="2ffyo" width="212" height="224" x="1183" y="494" filterUnits="userSpaceOnUse"><feOffset dy="12" in="SourceGraphic" result="FeOffset1135Out"/><feGaussianBlur in="FeOffset1135Out" result="FeGaussianBlur1136Out" stdDeviation="13.6 13.6"/></filter><mask id="2ffyr" width="2" height="2" x="-1" y="-1"><path fill="#fff" d="M1390 295h85v86h-85z"/><path d="M1475 338.25c0-23.473-19.028-42.5-42.5-42.5s-42.5 19.027-42.5 42.5c0 23.472 19.028 42.5 42.5 42.5s42.5-19.028 42.5-42.5z"/></mask><filter id="2ffyq" width="173" height="186" x="1346" y="251" filterUnits="userSpaceOnUse"><feOffset dy="12" in="SourceGraphic" result="FeOffset1151Out"/><feGaussianBlur in="FeOffset1151Out" result="FeGaussianBlur1152Out" stdDeviation="13.6 13.6"/></filter><mask id="2ffyt" width="2" height="2" x="-1" y="-1"><path fill="#fff" d="M1425 480h92v92h-92z"/><path d="M1517 526c0-25.405-20.595-46-46-46s-46 20.595-46 46 20.595 46 46 46 46-20.595 46-46z"/></mask><filter id="2ffys" width="180" height="192" x="1381" y="436" filterUnits="userSpaceOnUse"><feOffset dy="12" in="SourceGraphic" result="FeOffset1167Out"/><feGaussianBlur in="FeOffset1167Out" result="FeGaussianBlur1168Out" stdDeviation="13.6 13.6"/></filter><mask id="2ffyv" width="2" height="2" x="-1" y="-1"><path fill="#fff" d="M1467 17h98v99h-98z"/><path d="M1565 66.406c0-27.062-21.938-49-49-49s-49 21.938-49 49 21.938 49 49 49 49-21.938 49-49z"/></mask><filter id="2ffyu" width="186" height="199" x="1423" y="-27" filterUnits="userSpaceOnUse"><feOffset dy="12" in="SourceGraphic" result="FeOffset1183Out"/><feGaussianBlur in="FeOffset1183Out" result="FeGaussianBlur1184Out" stdDeviation="13.6 13.6"/></filter><mask id="2ffyx" width="2" height="2" x="-1" y="-1"><path fill="#fff" d="M1531 265h54v55h-54z"/><path d="M1585 292.667c0-14.912-12.088-27-27-27s-27 12.088-27 27c0 14.911 12.088 27 27 27s27-12.089 27-27z"/></mask><filter id="2ffyw" width="142" height="155" x="1487" y="221" filterUnits="userSpaceOnUse"><feOffset dy="12" in="SourceGraphic" result="FeOffset1199Out"/><feGaussianBlur in="FeOffset1199Out" result="FeGaussianBlur1200Out" stdDeviation="13.6 13.6"/></filter></defs><g><g><g filter="url(#2ffya)"><path fill="none" d="M207 226.5c0-31.205 25.296-56.5 56.5-56.5s56.5 25.295 56.5 56.5c0 31.204-25.296 56.5-56.5 56.5S207 257.704 207 226.5z" mask="url(&quot;#2ffyb&quot;)"/><path fill-opacity=".15" d="M207 226.5c0-31.205 25.296-56.5 56.5-56.5s56.5 25.295 56.5 56.5c0 31.204-25.296 56.5-56.5 56.5S207 257.704 207 226.5z"/></g><path fill="none" stroke="#fff" stroke-miterlimit="20" stroke-width="6" d="M207 226.5c0-31.205 25.296-56.5 56.5-56.5s56.5 25.295 56.5 56.5c0 31.204-25.296 56.5-56.5 56.5S207 257.704 207 226.5z"/></g><g><g filter="url(#2ffyc)"><path fill="none" d="M314 551.5c0-41.146 33.355-74.5 74.5-74.5s74.5 33.354 74.5 74.5c0 41.145-33.355 74.5-74.5 74.5S314 592.644 314 551.5z" mask="url(&quot;#2ffyd&quot;)"/><path fill-opacity=".15" d="M314 551.5c0-41.146 33.355-74.5 74.5-74.5s74.5 33.354 74.5 74.5c0 41.145-33.355 74.5-74.5 74.5S314 592.644 314 551.5z"/></g><path fill="none" stroke="#fff" stroke-miterlimit="20" stroke-width="6" d="M314 551.5c0-41.146 33.355-74.5 74.5-74.5s74.5 33.354 74.5 74.5c0 41.145-33.355 74.5-74.5 74.5S314 592.644 314 551.5z"/></g><g><g filter="url(#2ffye)"><path fill="none" d="M383 342.5c0-23.473 19.028-42.5 42.5-42.5s42.5 19.027 42.5 42.5c0 23.472-19.028 42.5-42.5 42.5S383 365.972 383 342.5z" mask="url(&quot;#2ffyf&quot;)"/><path fill-opacity=".15" d="M383 342.5c0-23.473 19.028-42.5 42.5-42.5s42.5 19.027 42.5 42.5c0 23.472-19.028 42.5-42.5 42.5S383 365.972 383 342.5z"/></g><path fill="none" stroke="#fff" stroke-miterlimit="20" stroke-width="6" d="M383 342.5c0-23.473 19.028-42.5 42.5-42.5s42.5 19.027 42.5 42.5c0 23.472-19.028 42.5-42.5 42.5S383 365.972 383 342.5z"/></g><g><g filter="url(#2ffyg)"><path fill="none" d="M29 614.5c0-23.473 19.028-42.5 42.5-42.5s42.5 19.027 42.5 42.5c0 23.472-19.028 42.5-42.5 42.5S29 637.972 29 614.5z" mask="url(&quot;#2ffyh&quot;)"/><path fill-opacity=".15" d="M29 614.5c0-23.473 19.028-42.5 42.5-42.5s42.5 19.027 42.5 42.5c0 23.472-19.028 42.5-42.5 42.5S29 637.972 29 614.5z"/></g><path fill="none" stroke="#fff" stroke-miterlimit="20" stroke-width="6" d="M29 614.5c0-23.473 19.028-42.5 42.5-42.5s42.5 19.027 42.5 42.5c0 23.472-19.028 42.5-42.5 42.5S29 637.972 29 614.5z"/></g><g><g filter="url(#2ffyi)"><path fill="none" d="M162 433c0-25.406 20.595-46 46-46s46 20.594 46 46c0 25.405-20.595 46-46 46s-46-20.595-46-46z" mask="url(&quot;#2ffyj&quot;)"/><path fill-opacity=".15" d="M162 433c0-25.406 20.595-46 46-46s46 20.594 46 46c0 25.405-20.595 46-46 46s-46-20.595-46-46z"/></g><path fill="none" stroke="#fff" stroke-miterlimit="20" stroke-width="6" d="M162 433c0-25.406 20.595-46 46-46s46 20.594 46 46c0 25.405-20.595 46-46 46s-46-20.595-46-46z"/></g><g><g filter="url(#2ffyk)"><path fill="none" d="M62 168c0-14.912 12.088-27 27-27s27 12.088 27 27c0 14.911-12.088 27-27 27s-27-12.089-27-27z" mask="url(&quot;#2ffyl&quot;)"/><path fill-opacity=".15" d="M62 168c0-14.912 12.088-27 27-27s27 12.088 27 27c0 14.911-12.088 27-27 27s-27-12.089-27-27z"/></g><path fill="none" stroke="#fff" stroke-miterlimit="20" stroke-width="5" d="M62 168c0-14.912 12.088-27 27-27s27 12.088 27 27c0 14.911-12.088 27-27 27s-27-12.089-27-27z"/></g><g><g filter="url(#2ffym)"><path fill="none" d="M1345 210.5c0-31.205-25.296-56.5-56.5-56.5s-56.5 25.295-56.5 56.5c0 31.204 25.296 56.5 56.5 56.5s56.5-25.296 56.5-56.5z" mask="url(&quot;#2ffyn&quot;)"/><path fill-opacity=".15" d="M1345 210.5c0-31.205-25.296-56.5-56.5-56.5s-56.5 25.295-56.5 56.5c0 31.204 25.296 56.5 56.5 56.5s56.5-25.296 56.5-56.5z"/></g><path fill="none" stroke="#fff" stroke-miterlimit="20" stroke-width="6" d="M1345 210.5c0-31.205-25.296-56.5-56.5-56.5s-56.5 25.295-56.5 56.5c0 31.204 25.296 56.5 56.5 56.5s56.5-25.296 56.5-56.5z"/></g><g><g filter="url(#2ffyo)"><path fill="none" d="M1351 600c0-34.242-27.759-62-62-62-34.242 0-62 27.758-62 62 0 34.241 27.758 62 62 62 34.241 0 62-27.759 62-62z" mask="url(&quot;#2ffyp&quot;)"/><path fill-opacity=".15" d="M1351 600c0-34.242-27.759-62-62-62-34.242 0-62 27.758-62 62 0 34.241 27.758 62 62 62 34.241 0 62-27.759 62-62z"/></g><path fill="none" stroke="#fff" stroke-miterlimit="20" stroke-width="6" d="M1351 600c0-34.242-27.759-62-62-62-34.242 0-62 27.758-62 62 0 34.241 27.758 62 62 62 34.241 0 62-27.759 62-62z"/></g><g><g filter="url(#2ffyq)"><path fill="none" d="M1475 338.25c0-23.473-19.028-42.5-42.5-42.5s-42.5 19.027-42.5 42.5c0 23.472 19.028 42.5 42.5 42.5s42.5-19.028 42.5-42.5z" mask="url(&quot;#2ffyr&quot;)"/><path fill-opacity=".15" d="M1475 338.25c0-23.473-19.028-42.5-42.5-42.5s-42.5 19.027-42.5 42.5c0 23.472 19.028 42.5 42.5 42.5s42.5-19.028 42.5-42.5z"/></g><path fill="none" stroke="#fff" stroke-miterlimit="20" stroke-width="6" d="M1475 338.25c0-23.473-19.028-42.5-42.5-42.5s-42.5 19.027-42.5 42.5c0 23.472 19.028 42.5 42.5 42.5s42.5-19.028 42.5-42.5z"/></g><g><g filter="url(#2ffys)"><path fill="none" d="M1517 526c0-25.405-20.595-46-46-46s-46 20.595-46 46 20.595 46 46 46 46-20.595 46-46z" mask="url(&quot;#2ffyt&quot;)"/><path fill-opacity=".15" d="M1517 526c0-25.405-20.595-46-46-46s-46 20.595-46 46 20.595 46 46 46 46-20.595 46-46z"/></g><path fill="none" stroke="#fff" stroke-miterlimit="20" stroke-width="6" d="M1517 526c0-25.405-20.595-46-46-46s-46 20.595-46 46 20.595 46 46 46 46-20.595 46-46z"/></g><g><g filter="url(#2ffyu)"><path fill="none" d="M1565 66.406c0-27.062-21.938-49-49-49s-49 21.938-49 49 21.938 49 49 49 49-21.938 49-49z" mask="url(&quot;#2ffyv&quot;)"/><path fill-opacity=".15" d="M1565 66.406c0-27.062-21.938-49-49-49s-49 21.938-49 49 21.938 49 49 49 49-21.938 49-49z"/></g><path fill="none" stroke="#fff" stroke-miterlimit="20" stroke-width="6" d="M1565 66.406c0-27.062-21.938-49-49-49s-49 21.938-49 49 21.938 49 49 49 49-21.938 49-49z"/></g><g><g filter="url(#2ffyw)"><path fill="none" d="M1585 292.667c0-14.912-12.088-27-27-27s-27 12.088-27 27c0 14.911 12.088 27 27 27s27-12.089 27-27z" mask="url(&quot;#2ffyx&quot;)"/><path fill-opacity=".15" d="M1585 292.667c0-14.912-12.088-27-27-27s-27 12.088-27 27c0 14.911 12.088 27 27 27s27-12.089 27-27z"/></g><path fill="none" stroke="#fff" stroke-miterlimit="20" stroke-width="5" d="M1585 292.667c0-14.912-12.088-27-27-27s-27 12.088-27 27c0 14.911 12.088 27 27 27s27-12.089 27-27z"/></g></g></svg>